/vscmnt/brussel_pixiu_data/_data_brussel/112/vsc11236/PredSimResults/SUBJ07mtu3D/worker5.mot
version=1
nRows=4
nColumns=50
inDegrees=yes
endheader
                time	         pelvis_tilt	         pelvis_list	     pelvis_rotation	           pelvis_tx	           pelvis_ty	           pelvis_tz	       hip_flexion_r	     hip_adduction_r	      hip_rotation_r	        knee_angle_r	       ankle_angle_r	         mtp_angle_r	       hip_flexion_l	     hip_adduction_l	      hip_rotation_l	        knee_angle_l	       ankle_angle_l	         mtp_angle_l	    lumbar_extension	      lumbar_bending	     lumbar_rotation	 ercspn_r/activation	 intobl_r/activation	 extobl_r/activation	    abd_r/activation	    add_r/activation	hamstrings_r/activation	bifemsh_r/activation	glut_max_r/activation	iliopsoas_r/activation	rect_fem_r/activation	  vasti_r/activation	gastroc_r/activation	 soleus_r/activation	tib_ant_r/activation	 ercspn_l/activation	 intobl_l/activation	 extobl_l/activation	    abd_l/activation	    add_l/activation	hamstrings_l/activation	bifemsh_l/activation	glut_max_l/activation	iliopsoas_l/activation	rect_fem_l/activation	  vasti_l/activation	gastroc_l/activation	 soleus_l/activation	tib_ant_l/activation	
          1.05470424	         -5.32612466	         -1.19683914	          5.20161310	          1.28673917	          0.85254009	         -0.00728286	         31.24157712	         -0.15205825	         -1.17962803	         -8.17198555	          6.56285855	          0.25627750	        -12.24848243	         -0.22967692	          5.40513499	         -8.60604690	          8.99084185	         25.13250502	         -5.87066837	         -0.97974068	         -0.75744506	          0.12060043	          0.15834390	          0.02642118	          0.02618727	          0.10371788	          0.06537252	          0.01008316	          0.02482247	          0.01000021	          0.02529858	          0.04643956	          0.01912610	          0.01108776	          0.29757391	          0.07129284	          0.01000005	          0.01000011	          0.03904537	          0.01000183	          0.02129661	          0.12354432	          0.02642199	          0.32559718	          0.01000054	          0.01000012	          0.07657409	          0.27038556	          0.02092576	
          1.06525128	         -5.36701977	         -1.12054976	          5.11467972	          1.30162812	          0.85130982	         -0.00702725	         30.63072644	          0.15405265	         -0.30381204	         -8.45100657	          6.15881400	          0.26282598	        -12.30202360	         -0.10998041	          4.95035306	        -10.30987499	          8.26961585	         26.83812861	         -5.71862261	         -0.60526515	         -0.91489770	          0.11136606	          0.13467096	          0.02247113	          0.02227218	          0.14100254	          0.05559912	          0.01000113	          0.09099329	          0.01000539	          0.02151646	          0.04827289	          0.01626673	          0.01582955	          0.29259579	          0.11477836	          0.01000007	          0.01000009	          0.03320794	          0.02982556	          0.01811884	          0.10507406	          0.02247182	          0.33155838	          0.01175657	          0.01000046	          0.06512601	          0.25449923	          0.01779729	
          1.07579832	         -5.39532992	         -1.04899537	          4.99182275	          1.31679505	          0.85016104	         -0.00675236	         29.91682923	          0.40263109	          0.64217874	         -8.94521803	          5.84138336	          0.24465717	        -12.25257460	          0.01303983	          4.46099376	        -12.24676928	          7.42730114	         28.51266832	         -5.53587037	         -0.20970601	         -1.07069365	          0.09471747	          0.15130014	          0.01911162	          0.05286073	          0.11992227	          0.05059539	          0.02338142	          0.10198426	          0.01000020	          0.01829977	          0.04105612	          0.01383499	          0.01346309	          0.32561837	          0.12669774	          0.01000005	          0.01000014	          0.02824323	          0.03055039	          0.02056044	          0.08936518	          0.01911220	          0.28520970	          0.01000051	          0.01000034	          0.05538944	          0.23500453	          0.01513653	
          1.08634537	         -5.41456542	         -0.98873677	          4.82650068	          1.33202230	          0.84922688	         -0.00640953	         29.17422664	          0.64074239	          1.51883996	         -9.38973089	          5.41607276	          0.24099752	        -12.01820694	          0.13270095	          3.93094401	        -14.52299776	          6.44636589	         30.09688463	         -5.34834493	          0.20707926	         -1.22249028	          0.10291721	          0.12868035	          0.01625438	          0.09473555	          0.11415932	          0.05121370	          0.01988735	          0.11477578	          0.01000016	          0.01556398	          0.05683350	          0.01176666	          0.01145033	          0.35768485	          0.14098245	          0.01000006	          0.01000017	          0.02402077	          0.02598321	          0.02170556	          0.07600486	          0.01625487	          0.25401283	          0.01000050	          0.01000033	          0.04710853	          0.20466031	          0.01287357	
